<svg width="68" height="31" fill="none" xmlns="http://www.w3.org/2000/svg"><g clip-path="url(#a)"><path d="M26.602 30.921c-1.827-.47-3.117-2.139-3.14-4.062-.013-.999.17-1.657.67-2.418 1.456-2.211 4.548-2.521 6.388-.64.87.888 1.116 1.548 1.117 2.996.001 1.111-.032 1.296-.334 1.883-.7 1.358-1.986 2.22-3.442 2.31-.443.026-1.01-.004-1.26-.069zm1.706-3.031c.632-.452.736-1.497.201-2.01-.933-.896-2.343-.225-2.19 1.04.115.962 1.236 1.509 1.99.97zm26.653 2.995c-1.25-.36-2.345-1.409-2.816-2.692-.298-.813-.223-2.418.148-3.191.44-.915 1.053-1.546 1.93-1.988.721-.362.916-.405 1.836-.405s1.116.043 1.836.405c1.481.744 2.291 2.084 2.287 3.783-.004 1.773-.903 3.175-2.5 3.896-.69.312-1.99.404-2.721.192zm1.972-3.154c.338-.308.394-.44.394-.934 0-.493-.056-.625-.394-.934-.295-.269-.514-.36-.873-.36-.358 0-.577.091-.872.36-.338.309-.394.441-.394.934 0 .494.056.626.394.934.295.27.514.36.872.36.359 0 .578-.09.873-.36zm-41.756-4.135V21.44h-.428c-.963 0-1.383-1.25-.667-1.981l.352-.36h3.815c4.19 0 4.357-.026 4.64-.725.184-.453.075-1.022-.254-1.326-.231-.214-.615-.232-5.96-.29l-5.714-.062-.332-.338a1.17 1.17 0 10-1.663 NaN NaN 1.153 1.153 0 0-1.526 NaN NaN 1.17 1.17 0 0-1.663 NaN NaNzm46.17-11.736c-2.207-2.354-4.07-4.322-4.138-4.371-.068-.05-1.71-.092-3.651-.093l-3.528-.002v8.747h15.333l-4.015-4.28z" fill="#F88500"/></g><defs><clipPath id="a"><path fill="#fff" d="M0 0h68v31H0z"/></clipPath></defs></svg>